<svg xmlns="http://www.w3.org/2000/svg" width="190" height="152.107" viewBox="0 0 190 152.107"><path d="M59.425,0C17.446,29.987,0,65.968,0,96.5c0,29.442,16.9,55.611,47.978,55.611,20.715,0,39.8-13.086,39.8-35.981,0-17.446-11.992-30.532-29.983-30.532-21.809,0-27.8,18.536-27.8,27.8a20.455,20.455,0,0,0,.545,5.453C16.9,112.307,16.356,94.866,16.356,91.592c0-10.358,3.814-28.9,19.625-50.158C46.888,27.8,53.972,22.354,68.148,11.447Z" transform="translate(0)" fill="#fff"/><path d="M84.563,0C42.588,29.987,25.138,65.968,25.138,96.5c0,29.442,16.9,55.611,47.982,55.611,20.715,0,39.792-13.086,39.792-35.981,0-17.446-11.988-30.532-29.983-30.532-21.805,0-27.8,18.536-27.8,27.8a20.456,20.456,0,0,0,.545,5.453C42.039,112.307,41.5,94.866,41.5,91.592c0-10.358,3.814-28.9,19.625-50.158C72.034,27.8,79.114,22.354,93.29,11.447Z" transform="translate(77.088)" fill="#fff"/></svg>