<svg xmlns="http://www.w3.org/2000/svg" width="190" height="51.518" viewBox="0 0 190 51.518"><path d="M31.379,30.827c0-3.386,1.111-8.358,5.29-8.358,4.5,0,6.111,5.29,6.111,9.027,0,6.871-4.526,13.714-11.4,13.714V30.827m12.132-6.776a15.553,15.553,0,0,1,.6,15.58c-3.894,7.85-8.581,9.308-12.541,10.418v20.23A25.843,25.843,0,0,0,43.511,24.051M23.752,49.417C15.865,47.427,5.921,39.379,4.719,38.334h7.887c3.324,2.407,7.6,5.133,11.149,6.3V33.87a13.057,13.057,0,0,1,6.3-12,10.008,10.008,0,0,1,7.6-1.173A25.608,25.608,0,0,0,27.9,18.761a25.884,25.884,0,0,0-4.179,51.431V49.417ZM62.13,43.777h4.4V25.219h-4.4Zm14.093,0V31.649l8.2,12.128h4.084V25.219h-3.8V37.632L76.38,25.219H72.424V43.744h3.8Zm16.34-6.045a6.781,6.781,0,0,0,2.469,4.749,9.286,9.286,0,0,0,5.888,1.619,12.538,12.538,0,0,0,4.4-.665,5.622,5.622,0,0,0,2.721-2.056,5.253,5.253,0,0,0,.979-2.977,5.1,5.1,0,0,0-.822-2.944,5.467,5.467,0,0,0-2.25-1.866,19.29,19.29,0,0,0-4.4-1.33,12.481,12.481,0,0,1-3.77-1.235,1.369,1.369,0,0,1-.6-1.107,1.3,1.3,0,0,1,.665-1.14,5.05,5.05,0,0,1,2.787-.665,4.507,4.507,0,0,1,2.6.632,3.046,3.046,0,0,1,1.111,2.061l4.084-.161a5.158,5.158,0,0,0-2.028-4.084,9.162,9.162,0,0,0-5.732-1.52,11.515,11.515,0,0,0-3.989.632,5.512,5.512,0,0,0-2.531,1.871,4.392,4.392,0,0,0-.888,2.659,4.7,4.7,0,0,0,1.871,3.737,11.606,11.606,0,0,0,4.625,1.838c1.71.38,2.783.665,3.258.826a3.513,3.513,0,0,1,1.462.789,1.578,1.578,0,0,1,.413,1.111,2.286,2.286,0,0,1-1.016,1.8,5.883,5.883,0,0,1-5.955-.091,4.445,4.445,0,0,1-1.458-2.692l-3.894.206m28.278,6.045V28.387h5.983V25.219H110.736v3.134h6.016v15.39h4.088Zm9.118,0h4.4V25.219h-4.4Zm17.323,0V28.387h5.983V25.219H137.181v3.134H143.2v15.39h4.08v.033Zm8.742-8.643a19.584,19.584,0,0,0,.413,4.716,5.144,5.144,0,0,0,1.136,2.061A6.055,6.055,0,0,0,159.95,43.5a12.157,12.157,0,0,0,4.4.6,10.974,10.974,0,0,0,3.894-.57,6.146,6.146,0,0,0,2.374-1.524,5.076,5.076,0,0,0,1.235-2.308,23.244,23.244,0,0,0,.314-4.72V25.223h-4.08V35.485a17.5,17.5,0,0,1-.194,3.134,2.454,2.454,0,0,1-1.074,1.586,4.373,4.373,0,0,1-2.63.665,4.527,4.527,0,0,1-2.692-.7,2.845,2.845,0,0,1-1.235-1.838,19.656,19.656,0,0,1-.161-3.1V25.228h-4.08v9.906Zm28.815,8.643V28.387h5.983V25.219H174.733v3.134h6.016v15.39h4.088v.033ZM68.175,52.836a20.026,20.026,0,0,1,2.944.128,2.833,2.833,0,0,1,1.648.822,2.222,2.222,0,0,1,.632,1.677,2.4,2.4,0,0,1-.475,1.462,2.677,2.677,0,0,1-1.268.917,11.679,11.679,0,0,1-3.229.285H66.181v-5.29ZM66.214,68.222V61.231h2.659a27.1,27.1,0,0,0,4.241-.26,6.363,6.363,0,0,0,2.122-.888,5.021,5.021,0,0,0,1.71-1.833,5.735,5.735,0,0,0,.665-2.882,5.315,5.315,0,0,0-1.173-3.6,5.248,5.248,0,0,0-2.915-1.809,24.911,24.911,0,0,0-4.844-.285H62.126V68.194H66.21v.029Zm17.8-7.342,2.725-6.871,2.787,6.871ZM88.95,49.7H84.614l-7.887,18.52h4.336l1.681-4.212H90.85l1.772,4.212h4.435Zm8.709,12.5a6.768,6.768,0,0,0,2.473,4.749,9.286,9.286,0,0,0,5.888,1.619,12.538,12.538,0,0,0,4.4-.665,5.622,5.622,0,0,0,2.721-2.056,5.253,5.253,0,0,0,.979-2.977,4.894,4.894,0,0,0-.822-2.944,5.432,5.432,0,0,0-2.246-1.871,18.89,18.89,0,0,0-4.4-1.33,12.391,12.391,0,0,1-3.77-1.235,1.371,1.371,0,0,1-.6-1.14,1.3,1.3,0,0,1,.661-1.14,5.076,5.076,0,0,1,2.791-.661,4.528,4.528,0,0,1,2.6.628,3.072,3.072,0,0,1,1.107,2.061l4.088-.256a5.168,5.168,0,0,0-2.028-4.08,9.143,9.143,0,0,0-5.732-1.524,11.534,11.534,0,0,0-3.993.636,5.287,5.287,0,0,0-2.531,1.862,4.4,4.4,0,0,0-.888,2.663,4.7,4.7,0,0,0,1.866,3.737,11.551,11.551,0,0,0,4.625,1.833c1.71.38,2.783.669,3.258.822a3.484,3.484,0,0,1,1.462.793,1.578,1.578,0,0,1,.413,1.111,2.293,2.293,0,0,1-1.016,1.809,5.9,5.9,0,0,1-5.955-.095,4.406,4.406,0,0,1-1.458-2.692l-3.894.343m27.675,6.016V52.832h5.983V49.7H115.233v3.134h6.016v15.39Zm24.574,0v-3.13H138.6V60.083h10.171v-3.13H138.6V52.836h10.9V49.7h-15.01v18.52Zm3.423-8.643a19.7,19.7,0,0,0,.413,4.72,5.262,5.262,0,0,0,1.14,2.061,6.046,6.046,0,0,0,2.374,1.582,12.182,12.182,0,0,0,4.4.6,11,11,0,0,0,3.894-.574,6.139,6.139,0,0,0,2.37-1.52,5.072,5.072,0,0,0,1.235-2.312,22.837,22.837,0,0,0,.318-4.72V49.7h-4.084V59.955a17.978,17.978,0,0,1-.19,3.134,2.445,2.445,0,0,1-1.078,1.586,4.364,4.364,0,0,1-2.63.665,4.552,4.552,0,0,1-2.688-.694,2.871,2.871,0,0,1-1.239-1.838,20.425,20.425,0,0,1-.157-3.105V49.665h-4.084V59.58ZM177.9,52.836h3.2c1.648,0,2.663.033,2.981.066a2.648,2.648,0,0,1,1.548.727,2.049,2.049,0,0,1,.541,1.524,2.2,2.2,0,0,1-.413,1.392,2.276,2.276,0,0,1-1.14.793,17.118,17.118,0,0,1-3.675.219h-3.01v-4.72Zm0,15.386V60.5h.822a6.448,6.448,0,0,1,2.056.227,2.875,2.875,0,0,1,1.239.76,28.462,28.462,0,0,1,2.151,2.725l2.944,4.018h4.877l-2.469-3.6a21.125,21.125,0,0,0-2.317-3.01,9.035,9.035,0,0,0-2.18-1.557,6.645,6.645,0,0,0,3.989-1.71,4.744,4.744,0,0,0,1.33-3.452,4.842,4.842,0,0,0-.888-2.911,4.518,4.518,0,0,0-2.341-1.776,15.567,15.567,0,0,0-4.72-.5h-8.614v18.52Z" transform="translate(-1.994 -18.761)" fill="#fff"/></svg>