<?xml version="1.0" encoding="utf-8"?>
<!-- Generator: Adobe Illustrator 23.0.2, SVG Export Plug-In . SVG Version: 6.00 Build 0)  -->
<svg version="1.1" id="Layer_1" xmlns="http://www.w3.org/2000/svg" xmlns:xlink="http://www.w3.org/1999/xlink" x="0px" y="0px"
	 viewBox="0 0 190 52" enable-background="new 0 0 190 52" xml:space="preserve">
<path d="M29.5,12.3c0-3.4,1.1-8.4,5.3-8.4c4.5,0,6.1,5.3,6.1,9c0,6.9-4.5,13.7-11.4,13.7L29.5,12.3 M41.6,5.5
	c2.2,3.1,3.8,9.2,0.6,15.6c-3.9,7.8-8.6,9.3-12.5,10.4v20.2C42.2,50,51.9,39.2,51.9,26.1C51.9,17.7,47.9,10.3,41.6,5.5 M21.9,30.9
	c-7.9-2-17.8-10-19-11.1h7.9c3.3,2.4,7.6,5.1,11.1,6.3V15.4c0-2.3,0-7.9,6.3-12c2.4-1.6,5.2-1.7,7.6-1.2c-3-1.2-6.3-1.9-9.8-1.9
	C11.7,0.3,0.1,11.8,0.1,26.2c0,12.9,9.4,23.5,21.7,25.5L21.9,30.9L21.9,30.9z M60.2,25.3h4.4V6.7h-4.4V25.3z M74.3,25.3V13.1
	l8.2,12.1h4.1V6.7h-3.8v12.4L74.5,6.7h-4v18.5L74.3,25.3L74.3,25.3z M90.7,19.2c0.3,2.1,1.1,3.6,2.5,4.7c1.4,1.1,3.3,1.6,5.9,1.6
	c1.8,0,3.2-0.2,4.4-0.7c1.2-0.4,2.1-1.1,2.7-2.1s1-1.9,1-3c0-1.2-0.3-2.2-0.8-2.9c-0.5-0.8-1.3-1.4-2.3-1.9
	c-0.9-0.5-2.4-0.9-4.4-1.3c-2-0.4-3.2-0.9-3.8-1.2c-0.4-0.3-0.6-0.7-0.6-1.1c0-0.5,0.2-0.9,0.7-1.1c0.7-0.4,1.6-0.7,2.8-0.7
	c1.1,0,2,0.2,2.6,0.6s0.9,1.1,1.1,2.1l4.1-0.2c-0.1-1.7-0.7-3.1-2-4.1s-3.2-1.5-5.7-1.5c-1.6,0-2.9,0.2-4,0.6
	c-1.1,0.4-1.9,1-2.5,1.9c-0.6,0.8-0.9,1.7-0.9,2.7c0,1.5,0.6,2.7,1.9,3.7c0.9,0.7,2.4,1.3,4.6,1.8c1.7,0.4,2.8,0.7,3.3,0.8
	c0.7,0.2,1.2,0.5,1.5,0.8c0.3,0.3,0.4,0.7,0.4,1.1c0,0.7-0.4,1.3-1,1.8c-0.7,0.5-1.6,0.8-3,0.8c-1.2,0-2.2-0.3-3-0.9
	c-0.7-0.6-1.2-1.5-1.5-2.7L90.7,19.2 M118.9,25.3V9.9h6V6.7h-16.1v3.1h6v15.4L118.9,25.3L118.9,25.3z M128.1,25.3h4.4V6.7h-4.4V25.3
	z M145.4,25.3V9.9h6V6.7h-16.1v3.1h6v15.4L145.4,25.3L145.4,25.3L145.4,25.3z M154.1,16.6c0,2.1,0.1,3.6,0.4,4.7
	c0.2,0.7,0.6,1.4,1.1,2.1c0.6,0.7,1.4,1.2,2.4,1.6c1,0.4,2.5,0.6,4.4,0.6c1.6,0,2.9-0.2,3.9-0.6c1-0.4,1.8-0.9,2.4-1.5
	c0.6-0.6,1-1.4,1.2-2.3c0.2-0.9,0.3-2.5,0.3-4.7V6.7h-4.1V17c0,1.5-0.1,2.5-0.2,3.1c-0.1,0.6-0.5,1.2-1.1,1.6
	c-0.6,0.4-1.5,0.7-2.6,0.7c-1.1,0-2-0.2-2.7-0.7c-0.7-0.4-1.1-1.1-1.2-1.8c-0.1-0.5-0.2-1.5-0.2-3.1v-10h-4.1L154.1,16.6L154.1,16.6
	z M182.9,25.3V9.9h6V6.7h-16.1v3.1h6v15.4L182.9,25.3C182.9,25.2,182.9,25.3,182.9,25.3z M66.3,34.3c1.5,0,2.4,0,2.9,0.1
	c0.7,0.1,1.2,0.4,1.6,0.8c0.4,0.4,0.6,1,0.6,1.7c0,0.5-0.2,1-0.5,1.5c-0.3,0.4-0.7,0.7-1.3,0.9s-1.6,0.3-3.2,0.3h-2.2v-5.3H66.3
	L66.3,34.3z M64.3,49.7v-7H67c1.8,0,3.3-0.1,4.2-0.3c0.7-0.2,1.4-0.4,2.1-0.9c0.7-0.4,1.3-1,1.7-1.8c0.4-0.8,0.7-1.7,0.7-2.9
	c0-1.5-0.4-2.7-1.2-3.6c-0.8-0.9-1.7-1.6-2.9-1.8c-0.8-0.2-2.4-0.3-4.8-0.3h-6.6v18.5L64.3,49.7L64.3,49.7L64.3,49.7z M82.1,42.4
	l2.7-6.9l2.8,6.9H82.1z M87.1,31.2h-4.3l-7.9,18.5h4.3l1.7-4.2H89l1.8,4.2h4.4L87.1,31.2z M95.8,43.7c0.3,2.1,1.1,3.6,2.5,4.7
	c1.4,1.1,3.3,1.6,5.9,1.6c1.8,0,3.2-0.2,4.4-0.7c1.2-0.4,2.1-1.1,2.7-2.1s1-1.9,1-3c0-1.2-0.3-2.2-0.8-2.9c-0.5-0.8-1.3-1.4-2.2-1.9
	c-0.9-0.5-2.4-0.9-4.4-1.3c-2-0.4-3.2-0.9-3.8-1.2c-0.4-0.3-0.6-0.7-0.6-1.1c0-0.5,0.2-0.9,0.7-1.1c0.7-0.4,1.6-0.7,2.8-0.7
	c1.1,0,2,0.2,2.6,0.6c0.6,0.4,0.9,1.1,1.1,2.1l4.1-0.3c-0.1-1.7-0.7-3.1-2-4.1c-1.3-1-3.2-1.5-5.7-1.5c-1.6,0-2.9,0.2-4,0.6
	s-1.9,1-2.5,1.9c-0.6,0.8-0.9,1.7-0.9,2.7c0,1.5,0.6,2.7,1.9,3.7c0.9,0.7,2.4,1.3,4.6,1.8c1.7,0.4,2.8,0.7,3.3,0.8
	c0.7,0.2,1.2,0.5,1.5,0.8c0.3,0.3,0.4,0.7,0.4,1.1c0,0.7-0.3,1.3-1,1.8c-0.7,0.5-1.6,0.8-3,0.8c-1.2,0-2.2-0.3-3-0.9
	c-0.7-0.6-1.2-1.5-1.5-2.7L95.8,43.7 M123.4,49.7V34.3h6v-3.1h-16.1v3.1h6v15.4H123.4z M148,49.7v-3.1h-11.3v-5h10.2v-3.1h-10.2
	v-4.1h10.9v-3.1h-15v18.5H148z M151.4,41.1c0,2.1,0.1,3.6,0.4,4.7c0.2,0.7,0.6,1.4,1.1,2.1c0.6,0.7,1.4,1.2,2.4,1.6
	c1,0.4,2.5,0.6,4.4,0.6c1.6,0,2.9-0.2,3.9-0.6c1-0.4,1.8-0.9,2.4-1.5c0.6-0.6,1-1.4,1.2-2.3c0.2-0.9,0.3-2.5,0.3-4.7v-9.7h-4.1v10.3
	c0,1.5-0.1,2.5-0.2,3.1c-0.1,0.6-0.5,1.2-1.1,1.6c-0.6,0.4-1.5,0.7-2.6,0.7c-1.1,0-2-0.2-2.7-0.7c-0.7-0.4-1.1-1.1-1.2-1.8
	c-0.1-0.5-0.2-1.5-0.2-3.1v-10h-4.1L151.4,41.1L151.4,41.1z M176,34.3h3.2c1.6,0,2.7,0,3,0.1c0.7,0.1,1.2,0.3,1.5,0.7
	c0.4,0.4,0.5,0.9,0.5,1.5c0,0.6-0.1,1-0.4,1.4c-0.3,0.4-0.7,0.6-1.1,0.8C182.3,39,181,39,179,39h-3L176,34.3L176,34.3z M176,49.7V42
	h0.8c0.9,0,1.6,0.1,2.1,0.2c0.4,0.1,0.9,0.4,1.2,0.8c0.4,0.4,1.1,1.3,2.2,2.7l2.9,4h4.9l-2.5-3.6c-1-1.5-1.7-2.4-2.3-3
	c-0.6-0.6-1.3-1.1-2.2-1.6c1.8-0.2,3.1-0.8,4-1.7c0.9-0.9,1.3-2.1,1.3-3.5c0-1.1-0.3-2.1-0.9-2.9c-0.6-0.9-1.4-1.5-2.3-1.8
	c-1-0.3-2.6-0.5-4.7-0.5h-8.6v18.5H176z"/>
</svg>
